<svg width="400" height="440" viewBox="0 0 400 440" fill="none" xmlns="http://www.w3.org/2000/svg">
<g clip-path="url(#clip0_82_1220)">
<path d="M277.503 89.5635C249.8 85.1402 218.253 82.7799 185.398 82.7799C155.33 82.7799 126.362 84.7537 100.436 88.4755C100.442 88.0771 100.447 87.6788 100.465 87.2805C101.152 64.1588 110.852 42.2234 127.491 26.1624C144.129 10.1014 166.387 1.18918 189.506 1.3305C212.626 1.47181 234.773 10.6555 251.214 26.9186C267.655 43.1818 277.086 65.2342 277.491 88.3625C277.497 88.7668 277.503 89.1652 277.503 89.5635Z" fill="#D0EA33"/>
<g opacity="0.1">
<path d="M200.581 1.29745C188.284 -0.364308 175.776 0.577527 163.867 4.06191C151.958 7.54629 140.913 13.4955 131.449 21.5239C121.985 29.5522 114.312 39.4807 108.929 50.6657C103.545 61.8508 100.57 74.0428 100.198 86.4517C100.18 86.85 100.174 87.2484 100.168 87.6467C107.87 86.541 115.846 85.5935 124.035 84.8023C125.037 64.1297 133.24 44.4602 147.222 29.207C161.204 13.9538 180.082 4.07946 200.581 1.29745Z" fill="white"/>
</g>
<path d="M316.235 96.5909C303.483 93.1321 290.548 90.3851 277.491 88.3626C256.091 85.0446 234.516 82.9701 212.876 82.1497C203.861 81.7811 194.68 81.5908 185.398 81.5908C178.042 81.5908 170.745 81.7097 163.549 81.9475C142.439 82.5715 121.38 84.3519 100.466 87.2805C84.9836 89.4135 69.6517 92.5231 54.5617 96.5909C19.3776 106.323 0 119.367 0 133.315C0 147.263 19.3776 160.307 54.5617 170.04C79.3053 176.889 109.813 181.556 143.054 183.696C156.775 184.588 170.959 185.04 185.398 185.04C199.886 185.04 214.117 184.582 227.88 183.69C258.132 181.734 286.12 177.685 309.544 171.799C309.669 171.764 309.788 171.734 309.912 171.704C311.493 171.312 313.05 170.902 314.589 170.491C315.142 170.337 315.688 170.188 316.235 170.04C316.266 170.027 316.298 170.017 316.33 170.01C316.853 169.867 317.37 169.719 317.887 169.576C318.921 169.279 319.943 168.987 320.947 168.684C320.995 168.672 321.036 168.66 321.078 168.648C321.951 168.387 322.807 168.125 323.657 167.864C324.352 167.644 325.041 167.43 325.725 167.21C326.224 167.049 326.717 166.889 327.204 166.728C327.561 166.609 327.912 166.496 328.256 166.377C328.726 166.223 329.195 166.062 329.659 165.902C329.855 165.836 330.051 165.771 330.241 165.699C330.687 165.551 331.12 165.396 331.554 165.242C332.024 165.075 332.493 164.903 332.956 164.736C333.343 164.6 333.729 164.457 334.109 164.314C334.43 164.189 334.745 164.07 335.066 163.952C335.939 163.625 336.795 163.286 337.639 162.953C338.061 162.78 338.483 162.614 338.899 162.441C339.309 162.275 339.725 162.103 340.129 161.93C340.794 161.651 341.448 161.371 342.09 161.092C342.399 160.949 342.714 160.812 343.017 160.682C343.249 160.575 343.474 160.474 343.706 160.367C343.872 160.295 344.039 160.218 344.199 160.141C344.799 159.867 345.394 159.588 345.976 159.308C348.21 158.238 350.296 157.144 352.233 156.026C364.385 149.064 370.797 141.341 370.797 133.315C370.797 119.367 351.419 106.323 316.235 96.5909ZM315.914 168.898C291.141 175.753 260.55 180.42 227.22 182.543C213.666 183.405 199.654 183.851 185.398 183.851C171.19 183.851 157.226 183.411 143.714 182.549C110.33 180.432 79.6915 175.765 54.8826 168.898C20.2571 159.314 1.18845 146.68 1.18845 133.315C1.19039 132.134 1.33812 130.958 1.62832 129.813C4.65864 117.756 23.2996 106.472 54.8826 97.7324C69.8586 93.6963 85.073 90.6046 100.436 88.4755C121.477 85.5303 142.663 83.744 163.899 83.1247C170.983 82.8928 178.149 82.7779 185.398 82.7799C194.556 82.7799 203.611 82.9642 212.513 83.3209C234.279 84.134 255.98 86.2184 277.503 89.5635C290.448 91.577 303.271 94.3042 315.914 97.7324C347.491 106.472 366.126 117.75 369.163 129.802C369.458 130.949 369.607 132.13 369.608 133.315C369.608 146.68 350.54 159.314 315.914 168.898Z" fill="#3F3D56"/>
<path d="M370.458 133.856C370.458 141.799 363.915 149.314 352.233 156.026C350.29 157.144 348.198 158.238 345.976 159.308C345.393 159.588 344.799 159.867 344.199 160.141C344.039 160.218 343.872 160.295 343.706 160.366C343.474 160.473 343.248 160.575 343.017 160.682C342.714 160.812 342.399 160.949 342.089 161.092C341.448 161.371 340.794 161.651 340.129 161.93C339.724 162.102 339.308 162.275 338.898 162.441C338.483 162.614 338.061 162.78 337.639 162.953C336.795 163.286 335.939 163.624 335.066 163.951C334.745 164.07 334.43 164.189 334.109 164.314C333.729 164.457 333.343 164.6 332.956 164.736C332.493 164.903 332.023 165.075 331.554 165.242C331.12 165.396 330.686 165.551 330.241 165.699C330.051 165.771 329.854 165.836 329.658 165.902C329.195 166.062 328.725 166.223 328.256 166.377C327.911 166.496 327.561 166.609 327.204 166.728C326.717 166.888 326.224 167.049 325.724 167.21C325.041 167.43 324.352 167.644 323.657 167.864C322.807 168.125 321.951 168.387 321.078 168.648C321.036 168.66 320.994 168.672 320.947 168.684C319.943 168.987 318.921 169.279 317.887 169.576C317.37 169.718 316.853 169.867 316.33 170.01C316.297 170.017 316.266 170.027 316.235 170.04C315.688 170.188 315.141 170.337 314.589 170.491C313.056 170.896 311.493 171.306 309.912 171.704C309.787 171.734 309.668 171.764 309.544 171.799C286.755 177.495 258.797 181.645 227.856 183.648C214.301 184.522 200.171 184.986 185.654 184.986C171.006 184.986 156.756 184.516 143.095 183.625C61.5436 178.304 0.849609 158.042 0.849609 133.856C0.85603 132.385 1.08023 130.922 1.51492 129.516C1.55061 129.617 1.58629 129.712 1.62808 129.813C10.1074 152.096 70.2849 170.105 148.366 174.499C160.328 175.176 172.718 175.527 185.398 175.527C198.133 175.527 210.57 175.17 222.579 174.493C300.595 170.081 360.713 152.067 369.162 129.801C369.305 129.445 369.43 129.088 369.537 128.731C370.139 130.373 370.451 132.107 370.458 133.856Z" fill="#3F3D56"/>
<path d="M54.4724 127.457C44.5829 127.457 34.0723 125.328 34.0723 121.382C34.0723 117.437 44.5829 115.308 54.4724 115.308C64.3619 115.308 74.8726 117.437 74.8726 121.382C74.8726 125.328 64.362 127.457 54.4724 127.457ZM54.4724 116.497C43.1507 116.497 35.2607 119.072 35.2607 121.382C35.2607 123.693 43.1507 126.268 54.4724 126.268C65.7942 126.268 73.6842 123.693 73.6842 121.382C73.6842 119.072 65.7942 116.497 54.4724 116.497Z" fill="#3F3D56"/>
<path d="M96.6618 155.4C86.7724 155.4 76.2617 153.271 76.2617 149.326C76.2617 145.38 86.7724 143.251 96.6618 143.251C106.551 143.251 117.062 145.38 117.062 149.326C117.062 153.271 106.551 155.4 96.6618 155.4ZM96.6618 144.44C85.3401 144.44 77.4502 147.015 77.4502 149.326C77.4502 151.636 85.3401 154.211 96.6618 154.211C107.984 154.211 115.874 151.636 115.874 149.326C115.874 147.015 107.984 144.44 96.6618 144.44Z" fill="#3F3D56"/>
<path d="M315.931 127.457C306.042 127.457 295.531 125.328 295.531 121.382C295.531 117.437 306.042 115.308 315.931 115.308C325.821 115.308 336.332 117.437 336.332 121.382C336.332 125.328 325.821 127.457 315.931 127.457ZM315.931 116.497C304.61 116.497 296.72 119.072 296.72 121.382C296.72 123.693 304.61 126.268 315.931 126.268C327.253 126.268 335.143 123.693 335.143 121.382C335.143 119.072 327.253 116.497 315.931 116.497Z" fill="#3F3D56"/>
<path d="M273.742 155.4C263.852 155.4 253.342 153.271 253.342 149.326C253.342 145.38 263.852 143.251 273.742 143.251C283.631 143.251 294.142 145.38 294.142 149.326C294.142 153.271 283.631 155.4 273.742 155.4ZM273.742 144.44C262.42 144.44 254.53 147.015 254.53 149.326C254.53 151.636 262.42 154.211 273.742 154.211C285.064 154.211 292.954 151.636 292.954 149.326C292.954 147.015 285.064 144.44 273.742 144.44Z" fill="#3F3D56"/>
<path d="M185.201 168.48C175.311 168.48 164.801 166.351 164.801 162.405C164.801 158.46 175.311 156.331 185.201 156.331C195.09 156.331 205.601 158.46 205.601 162.405C205.601 166.351 195.09 168.48 185.201 168.48ZM185.201 157.52C173.879 157.52 165.989 160.095 165.989 162.405C165.989 164.716 173.879 167.29 185.201 167.29C196.523 167.29 204.413 164.716 204.413 162.405C204.413 160.095 196.523 157.52 185.201 157.52Z" fill="#3F3D56"/>
<path d="M200.242 293.437C214.03 293.437 225.207 282.254 225.207 268.459C225.207 254.664 214.03 243.481 200.242 243.481C186.454 243.481 175.277 254.664 175.277 268.459C175.277 282.254 186.454 293.437 200.242 293.437Z" fill="#2F2E41"/>
<path d="M190.748 284.869L178.598 290.957L181.994 297.742L194.144 291.654L190.748 284.869Z" fill="#2F2E41"/>
<path d="M183.596 297.053C184.316 295.96 182.538 293.515 179.624 291.593C176.71 289.67 173.763 288.998 173.043 290.092C172.322 291.185 174.101 293.63 177.015 295.552C179.929 297.475 182.875 298.147 183.596 297.053Z" fill="#2F2E41"/>
<path d="M209.734 284.869L206.338 291.654L218.488 297.742L221.884 290.957L209.734 284.869Z" fill="#2F2E41"/>
<path d="M223.468 295.552C226.382 293.63 228.16 291.185 227.44 290.092C226.719 288.998 223.773 289.67 220.859 291.593C217.944 293.515 216.166 295.96 216.887 297.053C217.607 298.147 220.554 297.475 223.468 295.552Z" fill="#2F2E41"/>
<path d="M198.493 270.886C203.205 270.886 207.025 267.064 207.025 262.349C207.025 257.634 203.205 253.812 198.493 253.812C193.781 253.812 189.961 257.634 189.961 262.349C189.961 267.064 193.781 270.886 198.493 270.886Z" fill="white"/>
<path d="M200.568 260.713C201.674 259.606 201.667 257.805 200.553 256.691C199.44 255.576 197.64 255.57 196.534 256.677C195.428 257.783 195.434 259.584 196.548 260.698C197.662 261.813 199.462 261.819 200.568 260.713Z" fill="#3F3D56"/>
<path d="M219.935 241.286C220.311 232.039 212.345 224.206 202.144 223.792C191.942 223.377 183.368 230.537 182.993 239.784C182.617 249.031 189.709 251.132 199.91 251.547C210.112 251.962 219.56 250.533 219.935 241.286Z" fill="#D0EA33"/>
<path d="M234.325 281.538C235.967 280.128 233.658 274.742 229.167 269.508C224.677 264.275 219.705 261.176 218.063 262.586C216.421 263.996 218.73 269.382 223.221 274.616C227.711 279.849 232.682 282.948 234.325 281.538Z" fill="#2F2E41"/>
<path d="M177.331 274.616C181.822 269.382 184.131 263.996 182.489 262.586C180.846 261.176 175.875 264.275 171.385 269.508C166.894 274.742 164.585 280.128 166.227 281.538C167.869 282.948 172.841 279.849 177.331 274.616Z" fill="#2F2E41"/>
<path d="M207.098 278.302C207.369 279.787 207.038 281.319 206.18 282.56C205.321 283.801 204.005 284.65 202.521 284.921C201.037 285.191 199.506 284.86 198.265 284.001C197.025 283.143 196.176 281.826 195.906 280.341L195.904 280.33C195.344 277.237 197.734 276.142 200.826 275.583C203.917 275.023 206.539 275.209 207.098 278.302Z" fill="white"/>
<path d="M158.063 295.028C157.748 295.028 157.446 294.903 157.223 294.68C157 294.457 156.875 294.155 156.875 293.839V223.684C156.875 223.369 157 223.067 157.223 222.844C157.446 222.621 157.748 222.495 158.063 222.495C158.379 222.495 158.681 222.621 158.904 222.844C159.127 223.067 159.252 223.369 159.252 223.684V293.839C159.252 294.155 159.127 294.457 158.904 294.68C158.681 294.903 158.379 295.028 158.063 295.028Z" fill="#CCCCCC"/>
<path d="M140.237 358.049C139.922 358.049 139.62 357.924 139.397 357.701C139.174 357.478 139.049 357.175 139.049 356.86V305.73C139.049 305.415 139.174 305.112 139.397 304.889C139.62 304.666 139.922 304.541 140.237 304.541C140.552 304.541 140.855 304.666 141.078 304.889C141.301 305.112 141.426 305.415 141.426 305.73V356.86C141.426 357.175 141.3 357.478 141.078 357.701C140.855 357.924 140.552 358.049 140.237 358.049Z" fill="#CCCCCC"/>
<path d="M185.993 315.837C185.678 315.837 185.376 315.712 185.153 315.489C184.93 315.266 184.805 314.963 184.805 314.648V244.493C184.805 244.178 184.93 243.875 185.153 243.652C185.376 243.429 185.678 243.304 185.993 243.304C186.308 243.304 186.611 243.429 186.833 243.652C187.056 243.875 187.182 244.178 187.182 244.493V314.648C187.182 314.963 187.056 315.266 186.833 315.489C186.611 315.712 186.308 315.837 185.993 315.837Z" fill="#CCCCCC"/>
<path d="M168.759 366.372C168.444 366.372 168.141 366.247 167.918 366.024C167.696 365.801 167.57 365.499 167.57 365.183V336.646C167.57 336.33 167.696 336.028 167.918 335.805C168.141 335.582 168.444 335.457 168.759 335.457C169.074 335.457 169.376 335.582 169.599 335.805C169.822 336.028 169.947 336.33 169.947 336.646V365.183C169.947 365.499 169.822 365.801 169.599 366.024C169.376 366.247 169.074 366.372 168.759 366.372Z" fill="#CCCCCC"/>
<path d="M193.122 220.117C192.807 220.117 192.505 219.992 192.282 219.769C192.059 219.546 191.934 219.243 191.934 218.928V190.39C191.934 190.075 192.059 189.773 192.282 189.55C192.505 189.327 192.807 189.201 193.122 189.201C193.437 189.201 193.74 189.327 193.962 189.55C194.185 189.773 194.31 190.075 194.31 190.39V218.928C194.31 219.243 194.185 219.546 193.962 219.769C193.74 219.992 193.437 220.117 193.122 220.117Z" fill="#CCCCCC"/>
<path d="M133.7 232.602C133.385 232.602 133.083 232.477 132.86 232.254C132.637 232.031 132.512 231.729 132.512 231.413V202.876C132.512 202.56 132.637 202.258 132.86 202.035C133.083 201.812 133.385 201.687 133.7 201.687C134.015 201.687 134.318 201.812 134.541 202.035C134.763 202.258 134.889 202.56 134.889 202.876V231.413C134.889 231.729 134.763 232.031 134.541 232.254C134.318 232.477 134.015 232.602 133.7 232.602Z" fill="#CCCCCC"/>
<path d="M237.095 235.575C236.78 235.575 236.477 235.45 236.254 235.227C236.031 235.004 235.906 234.701 235.906 234.386V205.848C235.906 205.533 236.031 205.231 236.254 205.008C236.477 204.785 236.78 204.659 237.095 204.659C237.41 204.659 237.712 204.785 237.935 205.008C238.158 205.231 238.283 205.533 238.283 205.848V234.386C238.283 234.701 238.158 235.004 237.935 235.227C237.712 235.45 237.41 235.575 237.095 235.575Z" fill="#CCCCCC"/>
<path d="M234.72 324.755C234.405 324.755 234.102 324.63 233.879 324.407C233.656 324.184 233.531 323.881 233.531 323.566V289.083C233.531 288.768 233.656 288.465 233.879 288.242C234.102 288.019 234.405 287.894 234.72 287.894C235.035 287.894 235.337 288.019 235.56 288.242C235.783 288.465 235.908 288.768 235.908 289.083V323.566C235.908 323.881 235.783 324.184 235.56 324.407C235.337 324.63 235.035 324.755 234.72 324.755Z" fill="#CCCCCC"/>
<path d="M210.95 355.076C210.635 355.076 210.333 354.951 210.11 354.728C209.887 354.505 209.762 354.203 209.762 353.887V302.757C209.762 302.442 209.887 302.139 210.11 301.916C210.333 301.693 210.635 301.568 210.95 301.568C211.265 301.568 211.568 301.693 211.791 301.916C212.013 302.139 212.139 302.442 212.139 302.757V353.887C212.139 354.203 212.013 354.505 211.791 354.728C211.568 354.951 211.265 355.076 210.95 355.076Z" fill="#CCCCCC"/>
<path d="M215.704 267.68C215.389 267.68 215.087 267.555 214.864 267.332C214.641 267.109 214.516 266.806 214.516 266.491V196.336C214.516 196.02 214.641 195.718 214.864 195.495C215.087 195.272 215.389 195.147 215.704 195.147C216.019 195.147 216.322 195.272 216.544 195.495C216.767 195.718 216.893 196.02 216.893 196.336V266.491C216.893 266.806 216.767 267.109 216.544 267.332C216.322 267.555 216.019 267.68 215.704 267.68Z" fill="#CCCCCC"/>
<path d="M361.403 416.965C363.104 415.541 360.806 409.991 356.269 404.569C351.732 399.148 346.676 395.908 344.975 397.333C343.273 398.758 345.572 404.308 350.109 409.729C354.646 415.151 359.702 418.39 361.403 416.965Z" fill="#2F2E41"/>
<path d="M350.247 410.8C354.717 397.385 347.47 382.884 334.062 378.412C320.653 373.94 306.16 381.191 301.69 394.606C297.221 408.022 304.467 422.522 317.876 426.994C331.285 431.466 345.778 424.216 350.247 410.8Z" fill="#2F2E41"/>
<path d="M336.802 422.798H329.027V436.735H336.802V422.798Z" fill="#2F2E41"/>
<path d="M321.253 422.798H313.479V436.735H321.253V422.798Z" fill="#2F2E41"/>
<path d="M330.323 439.328C333.901 439.328 336.802 438.24 336.802 436.897C336.802 435.555 333.901 434.466 330.323 434.466C326.744 434.466 323.844 435.555 323.844 436.897C323.844 438.24 326.744 439.328 330.323 439.328Z" fill="#2F2E41"/>
<path d="M314.774 439.004C318.352 439.004 321.253 437.916 321.253 436.573C321.253 435.231 318.352 434.142 314.774 434.142C311.196 434.142 308.295 435.231 308.295 436.573C308.295 437.916 311.196 439.004 314.774 439.004Z" fill="#2F2E41"/>
<path d="M317.934 370.517C320.219 361.31 330.306 355.891 340.464 358.415C350.622 360.938 357.004 370.448 354.719 379.656C352.434 388.863 344.852 388.893 334.695 386.369C324.537 383.846 315.649 379.725 317.934 370.517Z" fill="#CCCCCC"/>
<path d="M308.706 396.309C309.656 394.303 305.251 390.221 298.866 387.191C292.48 384.161 286.533 383.331 285.583 385.336C284.632 387.342 289.038 391.424 295.423 394.454C301.808 397.484 307.755 398.314 308.706 396.309Z" fill="#2F2E41"/>
<path d="M322.144 405.837C326.856 405.837 330.676 402.015 330.676 397.301C330.676 392.586 326.856 388.764 322.144 388.764C317.431 388.764 313.611 392.586 313.611 397.301C313.611 402.015 317.431 405.837 322.144 405.837Z" fill="white"/>
<path d="M318.637 397.086C320.208 397.086 321.481 395.812 321.481 394.241C321.481 392.669 320.208 391.395 318.637 391.395C317.066 391.395 315.793 392.669 315.793 394.241C315.793 395.812 317.066 397.086 318.637 397.086Z" fill="#3F3D56"/>
<path d="M322.071 418.691C324.04 418.691 325.637 417.094 325.637 415.124C325.637 413.154 324.04 411.557 322.071 411.557C320.102 411.557 318.506 413.154 318.506 415.124C318.506 417.094 320.102 418.691 322.071 418.691Z" fill="white"/>
<path d="M399.04 439.5H258.803C258.646 439.5 258.494 439.437 258.383 439.326C258.272 439.214 258.209 439.063 258.209 438.905C258.209 438.748 258.272 438.597 258.383 438.485C258.494 438.374 258.646 438.311 258.803 438.311H399.04C399.198 438.311 399.349 438.374 399.461 438.485C399.572 438.597 399.635 438.748 399.635 438.905C399.635 439.063 399.572 439.214 399.461 439.326C399.349 439.437 399.198 439.5 399.04 439.5Z" fill="#3F3D56"/>
</g>
<defs>
<clipPath id="clip0_82_1220">
<rect width="399.635" height="439" fill="white" transform="translate(0 0.5)"/>
</clipPath>
</defs>
</svg>
